<mxfile host="app.diagrams.net" agent="Mozilla/5.0 (Macintosh; Intel Mac OS X 10_15_7) AppleWebKit/537.36 (KHTML, like Gecko) Chrome/137.0.0.0 Safari/537.36" version="26.1.0">
  <diagram name="Page-1" id="2YBvvXClWsGukQMizWep">
    <mxGraphModel dx="1194" dy="789" grid="1" gridSize="10" guides="1" tooltips="1" connect="1" arrows="1" fold="1" page="1" pageScale="1" pageWidth="850" pageHeight="1100" math="0" shadow="0">
      <root>
        <mxCell id="0" />
        <mxCell id="1" parent="0" />
        <mxCell id="P_TXJq4EZ34fTgiHPgL6-12" value="" style="edgeStyle=orthogonalEdgeStyle;rounded=0;orthogonalLoop=1;jettySize=auto;html=1;" edge="1" parent="1" source="P_TXJq4EZ34fTgiHPgL6-2" target="P_TXJq4EZ34fTgiHPgL6-3">
          <mxGeometry relative="1" as="geometry" />
        </mxCell>
        <mxCell id="P_TXJq4EZ34fTgiHPgL6-2" value="Клиент" style="rounded=0;whiteSpace=wrap;html=1;fontSize=14;" vertex="1" parent="1">
          <mxGeometry x="360" y="30" width="120" height="60" as="geometry" />
        </mxCell>
        <mxCell id="P_TXJq4EZ34fTgiHPgL6-13" value="" style="edgeStyle=orthogonalEdgeStyle;rounded=0;orthogonalLoop=1;jettySize=auto;html=1;" edge="1" parent="1" source="P_TXJq4EZ34fTgiHPgL6-3" target="P_TXJq4EZ34fTgiHPgL6-4">
          <mxGeometry relative="1" as="geometry" />
        </mxCell>
        <mxCell id="P_TXJq4EZ34fTgiHPgL6-3" value="Браузер&lt;div&gt;(React)&lt;/div&gt;" style="whiteSpace=wrap;html=1;fontSize=14;" vertex="1" parent="1">
          <mxGeometry x="360" y="130" width="120" height="60" as="geometry" />
        </mxCell>
        <mxCell id="P_TXJq4EZ34fTgiHPgL6-14" value="" style="edgeStyle=orthogonalEdgeStyle;rounded=0;orthogonalLoop=1;jettySize=auto;html=1;" edge="1" parent="1" source="P_TXJq4EZ34fTgiHPgL6-4" target="P_TXJq4EZ34fTgiHPgL6-5">
          <mxGeometry relative="1" as="geometry" />
        </mxCell>
        <mxCell id="P_TXJq4EZ34fTgiHPgL6-4" value="HTTP Запрос" style="whiteSpace=wrap;html=1;fontSize=14;" vertex="1" parent="1">
          <mxGeometry x="360" y="230" width="120" height="60" as="geometry" />
        </mxCell>
        <mxCell id="P_TXJq4EZ34fTgiHPgL6-15" value="" style="edgeStyle=orthogonalEdgeStyle;rounded=0;orthogonalLoop=1;jettySize=auto;html=1;" edge="1" parent="1" source="P_TXJq4EZ34fTgiHPgL6-5" target="P_TXJq4EZ34fTgiHPgL6-6">
          <mxGeometry relative="1" as="geometry" />
        </mxCell>
        <mxCell id="P_TXJq4EZ34fTgiHPgL6-5" value="Балансер загрузки" style="whiteSpace=wrap;html=1;fontSize=14;" vertex="1" parent="1">
          <mxGeometry x="360" y="330" width="120" height="60" as="geometry" />
        </mxCell>
        <mxCell id="P_TXJq4EZ34fTgiHPgL6-17" value="" style="edgeStyle=orthogonalEdgeStyle;rounded=0;orthogonalLoop=1;jettySize=auto;html=1;" edge="1" parent="1" source="P_TXJq4EZ34fTgiHPgL6-6" target="P_TXJq4EZ34fTgiHPgL6-7">
          <mxGeometry relative="1" as="geometry" />
        </mxCell>
        <mxCell id="P_TXJq4EZ34fTgiHPgL6-6" value="Сервер сайта&lt;div&gt;(Node.js)&lt;/div&gt;" style="whiteSpace=wrap;html=1;fontSize=14;" vertex="1" parent="1">
          <mxGeometry x="360" y="430" width="120" height="60" as="geometry" />
        </mxCell>
        <mxCell id="P_TXJq4EZ34fTgiHPgL6-7" value="База данных&lt;div&gt;(MySQL)&lt;/div&gt;" style="whiteSpace=wrap;html=1;fontSize=14;" vertex="1" parent="1">
          <mxGeometry x="360" y="530" width="120" height="60" as="geometry" />
        </mxCell>
        <mxCell id="P_TXJq4EZ34fTgiHPgL6-18" value="Игорь&lt;div&gt;&lt;br&gt;&lt;/div&gt;" style="shape=umlActor;verticalLabelPosition=bottom;verticalAlign=top;html=1;outlineConnect=0;" vertex="1" parent="1">
          <mxGeometry x="670" y="170" width="100" height="370" as="geometry" />
        </mxCell>
      </root>
    </mxGraphModel>
  </diagram>
</mxfile>
